<?xml version="1.0" encoding="UTF-8"?>
<svg version="1.1" xmlns="http://www.w3.org/2000/svg" width="512" height="512">
<path d="M0 0 C89.1 0 178.2 0 270 0 C270 20.13 270 40.26 270 61 C230.4 61 190.8 61 150 61 C150 120.07 150 179.14 150 240 C159.9 240 169.8 240 180 240 C180 250.23 180 260.46 180 271 C150.3 271 120.6 271 90 271 C90 260.77 90 250.54 90 240 C99.9 240 109.8 240 120 240 C120 180.93 120 121.86 120 61 C80.4 61 40.8 61 0 61 C0 40.87 0 20.74 0 0 Z " fill="#000000" transform="translate(121,144)"/>
<path d="M0 0 C1.75779567 6.51318259 2.87962943 13.02368537 3.8828125 19.69140625 C4.14574348 21.4152504 4.14574348 21.4152504 4.41398621 23.17391968 C4.989948 26.96928927 5.55838116 30.76572485 6.125 34.5625 C6.32349528 35.88713906 6.5220123 37.21177485 6.72055054 38.53640747 C13.15500174 81.55096418 18.66213833 124.72277637 23 168 C24.30255234 167.83832336 25.60510468 167.67664673 26.9471283 167.5100708 C31.59501832 166.99601316 36.17318641 166.84569197 40.84594727 166.83886719 C41.67987503 166.83390228 42.5138028 166.82893738 43.3730011 166.82382202 C46.10414488 166.80934044 48.83523054 166.80242092 51.56640625 166.796875 C52.50904768 166.79404762 53.45168911 166.79122025 54.42289543 166.78830719 C59.41450144 166.77336925 64.40607896 166.76410653 69.39770508 166.75976562 C74.50888146 166.75429815 79.61978917 166.73029091 84.73088169 166.70179367 C88.70072652 166.68301104 92.67050873 166.67795339 96.64039421 166.67642975 C98.52233277 166.67343631 100.40427114 166.66552241 102.28616524 166.65224457 C134.39760844 166.44190036 134.39760844 166.44190036 144 175 C151.24161842 182.43733783 151.42932402 189.94805058 151.34057617 199.82006836 C151.34101425 201.09880829 151.34145233 202.37754822 151.34190369 203.69503784 C151.34276099 207.18430962 151.32517867 210.67326916 151.30418181 214.16246867 C151.28537048 217.8152918 151.28366107 221.46812285 151.28010559 225.12098694 C151.27079816 232.03047773 151.24620216 238.93982536 151.21605712 245.84925324 C151.18247242 253.7186531 151.1660169 261.58805995 151.15097082 269.45751369 C151.1196513 285.63843937 151.06465569 301.81916796 151 318 C141.1 318 131.2 318 121 318 C121 288.3 121 258.6 121 228 C89.98 228 58.96 228 27 228 C27.33 229.32 27.66 230.64 28 232 C28.50534898 237.59288857 28.76901521 243.20487815 29.0625 248.8125 C29.10735535 249.650159 29.15221069 250.48781799 29.19842529 251.3508606 C30.35612823 273.55673291 30.19090019 295.77187516 30 318 C25.74585377 318.02465622 21.49174502 318.04283899 17.23754883 318.05493164 C15.78929927 318.05997101 14.34105483 318.06680253 12.89282227 318.07543945 C10.81525412 318.08752247 8.73775303 318.09323211 6.66015625 318.09765625 C5.40855713 318.10289307 4.15695801 318.10812988 2.86743164 318.11352539 C0 318 0 318 -1 317 C-1.12506165 314.28871763 -1.18707019 311.59956944 -1.2109375 308.88671875 C-1.23669451 307.11107503 -1.26309454 305.33544055 -1.29003906 303.55981445 C-1.30329224 302.60708649 -1.31654541 301.65435852 -1.3302002 300.67276001 C-2.69207195 209.92367459 -13.08220951 119.17515333 -27.15869141 29.57568359 C-27.34510696 28.38665939 -27.53152252 27.19763519 -27.72358704 25.97257996 C-28.07700061 23.73221309 -28.43462611 21.49250489 -28.79728699 19.25361633 C-29.55653158 14.45686206 -30.23123455 9.87576048 -30 5 C-24.84913185 3.43913086 -19.73759602 2.29839451 -14.4375 1.375 C-13.34405273 1.17390625 -13.34405273 1.17390625 -12.22851562 0.96875 C-8.09847483 0.24013794 -4.21283574 -0.14641767 0 0 Z " fill="#000000" transform="translate(30,97)"/>
<path d="M0 0 C7.14588904 0.3992886 14.143923 1.2647153 21.1875 2.5 C22.31949829 2.69589722 22.31949829 2.69589722 23.47436523 2.89575195 C28.87216729 3.87216729 28.87216729 3.87216729 30 5 C29.8053539 13.53795215 28.51658981 22.00568394 27.1796875 30.42578125 C26.80865554 32.82611855 26.43798453 35.22651167 26.06762695 37.62695312 C25.87319 38.87742432 25.67875305 40.12789551 25.47842407 41.41625977 C12.29097618 126.56610288 2.89964156 212.64791762 1.44775391 298.85205078 C1.3963859 301.83375154 1.33917428 304.81529552 1.28125 307.796875 C1.26767456 308.71015564 1.25409912 309.62343628 1.2401123 310.56439209 C1.11324 316.88676 1.11324 316.88676 0 318 C-2.21855264 318.08783542 -4.43988496 318.10694609 -6.66015625 318.09765625 C-7.65685585 318.09553383 -7.65685585 318.09553383 -8.6736908 318.09336853 C-10.80333899 318.08775518 -12.93288339 318.07520054 -15.0625 318.0625 C-16.50325369 318.05748671 -17.94400903 318.05292351 -19.38476562 318.04882812 C-22.92321102 318.03778145 -26.46159539 318.02050792 -30 318 C-30.1941706 294.732388 -30.34574786 271.49078839 -29.0625 248.25 C-28.99715057 247.03990265 -28.99715057 247.03990265 -28.93048096 245.80535889 C-28.21539328 232.86157311 -28.21539328 232.86157311 -27 228 C-58.02 228 -89.04 228 -121 228 C-121 257.7 -121 287.4 -121 318 C-130.9 318 -140.8 318 -151 318 C-151.11305119 301.09241116 -151.20507905 284.18514699 -151.25906086 267.27728462 C-151.28479645 259.42592929 -151.31985735 251.5748262 -151.37719727 243.72363281 C-151.4271754 236.8771541 -151.45932476 230.03085815 -151.47044247 223.18420208 C-151.47693708 219.56189325 -151.49210226 215.94010707 -151.52865028 212.31796646 C-151.56920732 208.26529422 -151.56994027 204.21351929 -151.56762695 200.16064453 C-151.59459152 198.37715355 -151.59459152 198.37715355 -151.62210083 196.55763245 C-151.57202851 188.42753865 -150.06422852 181.65607865 -144.59254932 175.38759041 C-132.87554677 164.80798845 -114.45406826 166.70917534 -99.796875 166.76953125 C-97.86403433 166.77072638 -95.93119307 166.77117551 -93.99835205 166.7709198 C-89.97086895 166.77247423 -85.94347605 166.78068539 -81.91601562 166.79418945 C-76.77296927 166.81122346 -71.63002119 166.81500179 -66.48694992 166.81424427 C-62.50452754 166.81451702 -58.52212631 166.82001439 -54.539711 166.82724571 C-52.64363006 166.83040969 -50.74754675 166.83239443 -48.85146332 166.83313942 C-46.19878611 166.83532471 -43.5462099 166.84411424 -40.89355469 166.85473633 C-40.12347076 166.85428314 -39.35338684 166.85382996 -38.55996704 166.85336304 C-33.3092339 166.88387171 -28.2113841 167.35134917 -23 168 C-22.91976089 167.26737442 -22.83952179 166.53474884 -22.7568512 165.77992249 C-19.06764756 132.16863238 -15.25635435 98.58205538 -10.59461594 65.08982468 C-10.31811172 63.1028266 -10.04296813 61.11563934 -9.76785278 59.12844849 C-7.75509143 44.64446894 -5.59816977 30.18614333 -3.29296875 15.74609375 C-3.18486689 15.06328905 -3.07676502 14.38048435 -2.96538734 13.6769886 C-2.66053825 11.7572967 -2.35029801 9.83846324 -2.03979492 7.91967773 C-1.86300705 6.82276108 -1.68621918 5.72584442 -1.5040741 4.59568787 C-1 2 -1 2 0 0 Z " fill="#000000" transform="translate(482,97)"/>
</svg>
