<svg width="32" height="32" viewBox="0 0 32 32" fill="none" xmlns="http://www.w3.org/2000/svg">
<path d="M26 30C24.9391 30 23.9217 29.5786 23.1716 28.8284C22.4214 28.0783 22 27.0609 22 26V12C22 11.7348 22.1054 11.4804 22.2929 11.2929C22.4804 11.1054 22.7348 11 23 11H29C29.2652 11 29.5196 11.1054 29.7071 11.2929C29.8946 11.4804 30 11.7348 30 12V26C30 27.0609 29.5786 28.0783 28.8284 28.8284C28.0783 29.5786 27.0609 30 26 30ZM24 13V26C24 26.5304 24.2107 27.0391 24.5858 27.4142C24.9609 27.7893 25.4696 28 26 28C26.5304 28 27.0391 27.7893 27.4142 27.4142C27.7893 27.0391 28 26.5304 28 26V13H24Z" fill="#11394E"/>
<path d="M25.9999 30.0001H7.99987C6.40906 29.9985 4.88386 29.3658 3.75898 28.241C2.63411 27.1161 2.00146 25.5909 1.99987 24.0001V4.88007C1.9923 4.44975 2.10562 4.02594 2.32694 3.65683C2.54827 3.28772 2.86872 2.98811 3.25187 2.79207C3.60004 2.6186 3.98985 2.54614 4.3771 2.5829C4.76435 2.61966 5.13356 2.76418 5.44287 3.00007C5.68394 3.22172 6.00259 3.33955 6.32987 3.32807C6.52577 3.3301 6.71994 3.29132 6.90003 3.21419C7.08012 3.13705 7.24217 3.02327 7.37587 2.88007C8.00283 2.31145 8.81896 1.99648 9.66537 1.99648C10.5118 1.99648 11.3279 2.31145 11.9549 2.88007C12.0872 3.02188 12.2475 3.13467 12.4256 3.21127C12.6038 3.28788 12.7959 3.32663 12.9899 3.32507C13.1858 3.32694 13.38 3.28819 13.5602 3.21125C13.7404 3.13432 13.9027 3.02087 14.0369 2.87807C14.6654 2.30902 15.483 1.9939 16.3309 1.9939C17.1787 1.9939 17.9963 2.30902 18.6249 2.87807C18.7572 3.01988 18.9175 3.13267 19.0956 3.20927C19.2738 3.28588 19.4659 3.32463 19.6599 3.32307C19.8213 3.33067 19.9827 3.30632 20.1348 3.2514C20.2868 3.19649 20.4265 3.1121 20.5459 3.00307C20.8553 2.76415 21.2256 2.61702 21.6146 2.57848C22.0036 2.53993 22.3956 2.61152 22.7459 2.78507C23.1297 2.97967 23.4509 3.27849 23.6727 3.64725C23.8945 4.01602 24.0079 4.43982 23.9999 4.87007V26.0001C23.9999 26.5305 24.2106 27.0392 24.5857 27.4143C24.9607 27.7894 25.4694 28.0001 25.9999 28.0001C26.2651 28.0001 26.5194 28.1054 26.707 28.293C26.8945 28.4805 26.9999 28.7349 26.9999 29.0001C26.9999 29.2653 26.8945 29.5196 26.707 29.7072C26.5194 29.8947 26.2651 30.0001 25.9999 30.0001ZM4.22587 4.58907C4.19189 4.59327 4.15908 4.60414 4.12932 4.62105C4.09955 4.63796 4.07342 4.66059 4.05242 4.68763C4.03143 4.71466 4.01597 4.74558 4.00695 4.77861C3.99794 4.81163 3.99553 4.84611 3.99987 4.88007V24.0001C3.99987 25.0609 4.42129 26.0784 5.17144 26.8285C5.92159 27.5786 6.939 28.0001 7.99987 28.0001H22.5369C22.1841 27.3927 21.9988 26.7025 21.9999 26.0001V4.87007C22.0058 4.8138 21.9957 4.757 21.9708 4.70622C21.9458 4.65543 21.907 4.61274 21.8589 4.58307C21.2273 5.06656 20.4543 5.32904 19.6589 5.33007C18.8134 5.33547 17.9973 5.02032 17.3749 4.44807C17.2398 4.30658 17.0774 4.19396 16.8975 4.11701C16.7176 4.04006 16.524 4.00039 16.3284 4.00039C16.1327 4.00039 15.9391 4.04006 15.7592 4.11701C15.5794 4.19396 15.417 4.30658 15.2819 4.44807C14.6567 5.02177 13.8374 5.33729 12.9889 5.33107C12.1436 5.33692 11.3276 5.02168 10.7059 4.44907C10.572 4.30608 10.4099 4.19236 10.2299 4.11509C10.0498 4.03781 9.85577 3.99865 9.65987 4.00007C9.46594 3.99851 9.2738 4.03726 9.09563 4.11386C8.91746 4.19047 8.75715 4.30325 8.62487 4.44507C7.99949 5.01997 7.17932 5.33625 6.32987 5.33007C5.56224 5.34414 4.81526 5.08106 4.22587 4.58907Z" fill="#11394E"/>
<path d="M7.77273 12.199C8.43492 12.199 8.97173 11.6622 8.97173 11C8.97173 10.3378 8.43492 9.80103 7.77273 9.80103C7.11054 9.80103 6.57373 10.3378 6.57373 11C6.57373 11.6622 7.11054 12.199 7.77273 12.199Z" fill="#11394E"/>
<path d="M18 12H11C10.7348 12 10.4804 11.8946 10.2929 11.7071C10.1054 11.5196 10 11.2652 10 11C10 10.7348 10.1054 10.4804 10.2929 10.2929C10.4804 10.1054 10.7348 10 11 10H18C18.2652 10 18.5196 10.1054 18.7071 10.2929C18.8946 10.4804 19 10.7348 19 11C19 11.2652 18.8946 11.5196 18.7071 11.7071C18.5196 11.8946 18.2652 12 18 12Z" fill="#11394E"/>
<path d="M7.77273 17.199C8.43492 17.199 8.97173 16.6622 8.97173 16C8.97173 15.3378 8.43492 14.801 7.77273 14.801C7.11054 14.801 6.57373 15.3378 6.57373 16C6.57373 16.6622 7.11054 17.199 7.77273 17.199Z" fill="#11394E"/>
<path d="M18 17H11C10.7348 17 10.4804 16.8946 10.2929 16.7071C10.1054 16.5196 10 16.2652 10 16C10 15.7348 10.1054 15.4804 10.2929 15.2929C10.4804 15.1054 10.7348 15 11 15H18C18.2652 15 18.5196 15.1054 18.7071 15.2929C18.8946 15.4804 19 15.7348 19 16C19 16.2652 18.8946 16.5196 18.7071 16.7071C18.5196 16.8946 18.2652 17 18 17Z" fill="#11394E"/>
<path d="M7.77273 22.199C8.43492 22.199 8.97173 21.6622 8.97173 21C8.97173 20.3378 8.43492 19.801 7.77273 19.801C7.11054 19.801 6.57373 20.3378 6.57373 21C6.57373 21.6622 7.11054 22.199 7.77273 22.199Z" fill="#11394E"/>
<path d="M18 22H11C10.7348 22 10.4804 21.8946 10.2929 21.7071C10.1054 21.5196 10 21.2652 10 21C10 20.7348 10.1054 20.4804 10.2929 20.2929C10.4804 20.1054 10.7348 20 11 20H18C18.2652 20 18.5196 20.1054 18.7071 20.2929C18.8946 20.4804 19 20.7348 19 21C19 21.2652 18.8946 21.5196 18.7071 21.7071C18.5196 21.8946 18.2652 22 18 22Z" fill="#11394E"/>
</svg>
