<svg width="32" height="32" viewBox="0 0 32 32" fill="none" xmlns="http://www.w3.org/2000/svg">
<path d="M22.0288 13.75C22.0288 13.0596 21.4692 12.5 20.7788 12.5H7.90381C7.21343 12.5 6.65381 13.0596 6.65381 13.75C6.65381 14.4404 7.21343 15 7.90381 15H20.7788C21.4692 15 22.0288 14.4404 22.0288 13.75Z" fill="#4D0660"/>
<path d="M7.90381 17.5C7.21343 17.5 6.65381 18.0596 6.65381 18.75C6.65381 19.4404 7.21343 20 7.90381 20H15.7232C16.4136 20 16.9732 19.4404 16.9732 18.75C16.9732 18.0596 16.4136 17.5 15.7232 17.5H7.90381Z" fill="#4D0660"/>
<path d="M10.8412 29.5H6.66064C5.28214 29.5 4.16064 28.3785 4.16064 27V5C4.16064 3.6215 5.28214 2.5 6.66064 2.5H22.0287C23.4072 2.5 24.5287 3.6215 24.5287 5V12.6875C24.5287 13.3779 25.0883 13.9375 25.7787 13.9375C26.4691 13.9375 27.0287 13.3779 27.0287 12.6875V5C27.0287 2.243 24.7857 0 22.0287 0H6.66064C3.90364 0 1.66064 2.243 1.66064 5V27C1.66064 29.757 3.90364 32 6.66064 32H10.8412C11.5316 32 12.0912 31.4404 12.0912 30.75C12.0912 30.0596 11.5316 29.5 10.8412 29.5Z" fill="#4D0660"/>
<path d="M29.243 18.0982C27.7809 16.6361 25.4019 16.636 23.9407 18.0972L17.078 24.9447C16.9322 25.0901 16.8247 25.2693 16.7649 25.4663L15.2703 30.3866C15.1378 30.8228 15.2532 31.2965 15.5716 31.6228C15.8101 31.8673 16.1341 32 16.4664 32C16.5776 32 16.6899 31.9851 16.8001 31.9545L21.8454 30.557C22.053 30.4995 22.2422 30.3893 22.3947 30.237L29.2431 23.4016C30.7052 21.9395 30.7052 19.5605 29.243 18.0982ZM20.8612 28.2355L18.323 28.9386L19.0658 26.493L23.6964 21.8727L25.4645 23.6408L20.8612 28.2355ZM27.4762 21.6331L27.234 21.8748L25.4662 20.107L25.7076 19.8661C26.1949 19.3787 26.9879 19.3787 27.4753 19.8661C27.9627 20.3535 27.9627 21.1465 27.4762 21.6331Z" fill="#4D0660"/>
<path d="M20.7788 7.5H7.90381C7.21343 7.5 6.65381 8.05963 6.65381 8.75C6.65381 9.44037 7.21343 10 7.90381 10H20.7788C21.4692 10 22.0288 9.44037 22.0288 8.75C22.0288 8.05963 21.4692 7.5 20.7788 7.5Z" fill="#4D0660"/>
</svg>
