<svg width="32" height="32" viewBox="0 0 32 32" fill="none" xmlns="http://www.w3.org/2000/svg">
<g clip-path="url(#clip0_767_2495)">
<path d="M0.366094 8.7773C-0.122031 8.28911 -0.122031 7.49768 0.366094 7.00955L3.90159 3.47405C4.38978 2.98586 5.18128 2.98586 5.66941 3.47405C6.15753 3.96224 6.15753 4.75368 5.66941 5.2418L2.13391 8.7773C1.64578 9.26549 0.854281 9.26549 0.366094 8.7773Z" fill="#881D0D"/>
<path d="M29.8659 8.7773L26.3304 5.2418C25.8423 4.75361 25.8423 3.96218 26.3304 3.47405C26.8186 2.98586 27.6101 2.98586 28.0983 3.47405L31.6338 7.00955C32.1219 7.49774 32.1219 8.28918 31.6338 8.7773C31.1456 9.26549 30.3541 9.26549 29.8659 8.7773Z" fill="#881D0D"/>
<path d="M17.6161 21.6339L15.1161 19.1339C14.8817 18.8995 14.75 18.5815 14.75 18.25V13.25C14.75 12.5596 15.3096 12 16 12C16.6904 12 17.25 12.5596 17.25 13.25V17.7323L19.3839 19.8661C19.8721 20.3543 19.8721 21.1458 19.3839 21.6339C18.8958 22.122 18.1042 22.1221 17.6161 21.6339Z" fill="#881D0D"/>
<path d="M17.25 4.55662V2.5H18.5C19.1904 2.5 19.75 1.94037 19.75 1.25C19.75 0.559625 19.1904 0 18.5 0H13.5C12.8096 0 12.25 0.559625 12.25 1.25C12.25 1.94037 12.8096 2.5 13.5 2.5H14.75V4.55662C7.76 5.1825 2.25 11.0515 2.25 18.25C2.25 25.8492 8.39969 32 16 32C23.5994 32 29.75 25.8501 29.75 18.25C29.75 11.0596 24.2474 5.18313 17.25 4.55662ZM16 29.5C9.79675 29.5 4.75 24.4533 4.75 18.25C4.75 12.0468 9.79675 7 16 7C22.2033 7 27.25 12.0468 27.25 18.25C27.25 24.4533 22.2033 29.5 16 29.5Z" fill="#881D0D"/>
</g>
<defs>
<clipPath id="clip0_767_2495">
<rect width="32" height="32" fill="white"/>
</clipPath>
</defs>
</svg>
